<svg width="210" height="195" viewBox="0 0 210 195" fill="none" xmlns="http://www.w3.org/2000/svg">
<path d="M92.1875 171.882H82.0312V46.0957C82.0312 26.2471 65.9415 10.1567 46.0938 10.1567C26.246 10.1567 10.1562 26.2471 10.1562 46.0957C10.1562 65.9443 26.246 82.0348 46.0938 82.0348C46.8812 82.0348 47.6626 82.0094 48.4375 81.9595V92.1329C47.6611 92.1717 46.8798 92.1914 46.0938 92.1914C20.6368 92.1914 0 71.5537 0 46.0957C0 20.6378 20.6368 0 46.0938 0C71.0278 0 91.3377 19.7986 92.1616 44.5331H92.1875V171.882Z" fill="white"/>
<path d="M117.812 0H127.969V96.9188L127.969 125.698L127.969 125.787C127.969 145.635 144.059 161.726 163.906 161.726C183.754 161.726 199.844 145.635 199.844 125.787C199.844 125.263 199.833 124.742 199.81 124.224H209.974C209.991 124.743 210 125.264 210 125.787C210 151.245 189.363 171.882 163.906 171.882C138.972 171.882 118.662 152.084 117.838 127.349H117.812V0Z" fill="white"/>
<path d="M112.179 187.818L65.7753 141.412L58.5938 148.594L104.998 195L112.179 187.818Z" fill="white"/>
</svg>
