<svg xmlns="http://www.w3.org/2000/svg" fill="none" viewBox="0 0 50000 50000"><path d="M23047 43310h-2540V12346c0-4886-4022-8847-8984-8847S2540 7460 2540 12346c0 4885 4022 8846 8984 8846 197 0 393-6 586-18v2504c-194 7-390 12-586 12C5160 23693 0 18612 0 12347 0 6080 5160 1000 11523 1000c6234 0 11311 4874 11517 10962h7V43310ZM26953 1000h2540v30963c0 4886 4022 8846 8984 8846s8984-3960 8984-8846c0-130-3-257-8-385h2540c5 128 7 256 7 385 0 6266-5160 11346-11523 11346-6234 0-11311-4873-11517-10962h-7V1000Z" fill="#0A0A0A"/><path d="M28045 47232 16444 35810l-1796 1768L26250 49000l1795-1768Z" fill="#0A0A0A"/></svg>
