<svg width="152" height="150" viewBox="0 0 152 150" fill="none" xmlns="http://www.w3.org/2000/svg">
<path d="M120.429 97.4359C133.635 90.1523 138.455 84.0815 134.66 69.359C131.818 69.251 130.56 67.2473 129.916 64.2307C130.033 60.8664 126.648 56.4102 125.044 55.2564C123.043 53.816 121.07 53.5897 118.506 53.5897C118.506 53.5897 108.762 56.4102 100.301 56.4102C105.91 61.7697 109.139 73.6157 105.814 83.8461L120.429 97.4359Z" fill="url(#paint0_linear_37_138)"/>
<path d="M76.5361 150C117.957 150 151.536 116.421 151.536 75C151.536 61.9957 148.226 49.7644 142.403 39.1025C144.283 58.2702 142.647 65.1929 134.66 69.359C138.455 84.0815 133.635 90.1523 120.429 97.4359C120.746 116.21 109.765 137.859 76.5361 150Z" fill="url(#paint1_diamond_37_138)"/>
<path d="M134.66 69.359C142.647 65.193 144.283 58.2702 142.403 39.1026C135.325 26.1413 124.531 15.4993 111.455 8.60754C102.996 38.3736 103.862 48.3005 115.814 48.3333C124.158 48.5173 128.712 49.7777 136.198 57.9487C137.951 60.2816 137.657 62.6224 134.66 69.359Z" fill="url(#paint2_linear_37_138)"/>
<path d="M129.916 64.2307C130.56 67.2472 131.819 69.2509 134.66 69.3589C137.658 62.6223 137.951 60.2816 136.198 57.9487C128.712 49.7776 124.158 48.5172 115.814 48.3333C103.862 48.3005 102.996 38.3735 111.455 8.60749C95.2185 2.95133 87.0218 1.15618 76.5361 4.23071C90.5582 16.189 87.025 25.7072 76.5361 43.7179C87.5346 44.8803 93.0046 47.4196 100.301 56.4102C108.763 56.4102 118.506 53.5897 118.506 53.5897C121.07 53.5897 123.043 53.816 125.045 55.2563C126.648 56.4102 130.033 60.8664 129.916 64.2307Z" fill="url(#paint3_linear_37_138)"/>
<path fill-rule="evenodd" clip-rule="evenodd" d="M11.2123 76.2821C17.4957 63.5261 24.6457 54.1753 33.0746 47.8735C31.8038 68.6108 34.1593 77.9352 49.1471 88.5898C27.3189 91.4518 20.5283 87.6871 11.2123 76.2821Z" fill="url(#paint4_linear_37_138)"/>
<path d="M76.5361 150C64.4848 143.718 58.331 135.385 58.331 131.154C58.583 127.666 61.1305 117.035 79.1002 106.41C55.7976 119.519 42.6899 119.359 36.4079 114.359C29.613 117.051 18.4409 114.517 6.15149 100.963C16.7143 129.589 44.2415 150 76.5361 150Z" fill="url(#paint5_linear_37_138)"/>
<path d="M0.685547 75.1282C0.685547 81.591 2.35353 87.7347 3.89068 93.7179C6.20443 87.3169 8.63548 81.5131 11.2123 76.282C17.4957 63.526 24.6457 54.1752 33.0746 47.8734C40.4941 42.3263 48.9047 39.1417 58.5874 38.0769C46.6822 35.5147 39.7839 35.4123 31.5361 39.1025C42.9975 13.0554 54.2334 7.68358 68.2028 4.23071C46.393 5.22598 34.0906 10.9487 11.9207 36.8997C5.32246 48.0658 0.685547 61.2189 0.685547 75.1282Z" fill="url(#paint6_linear_37_138)"/>
<path fill-rule="evenodd" clip-rule="evenodd" d="M58.5874 38.0769C46.6822 35.5147 39.7839 35.4123 31.5361 39.1026C42.9975 13.0555 54.2334 7.68364 68.2028 4.23077C46.393 5.22604 34.0906 10.9488 11.9207 36.8998C24.9718 14.8136 49.024 0 76.5361 0C89.1442 0 101.026 3.11112 111.455 8.60755C95.2185 2.95139 87.0218 1.15623 76.5361 4.23077C90.5582 16.1891 87.025 25.7072 76.5361 43.718C87.5346 44.8804 93.0045 47.4196 100.301 56.4103C105.91 61.7697 109.139 73.6157 105.814 83.8462L120.429 97.4359C120.746 116.21 109.765 137.859 76.5361 150C64.4848 143.718 58.331 135.385 58.331 131.154C58.5829 127.666 61.1305 117.035 79.1002 106.41C55.7976 119.519 42.6899 119.359 36.4079 114.359C29.613 117.051 18.4409 114.517 6.15147 100.963C5.28016 98.6014 4.52428 96.1842 3.89068 93.718C6.20443 87.317 8.63548 81.5132 11.2123 76.2821C20.5282 87.687 27.3188 91.4518 49.1471 88.5898C34.1593 77.9351 31.8038 68.6108 33.0746 47.8735C40.4941 42.3263 48.9047 39.1417 58.5874 38.0769ZM75.8138 105C92.2407 105 105.557 91.6833 105.557 75.2564C105.557 58.8295 92.2407 45.5128 75.8138 45.5128C59.3868 45.5128 46.0702 58.8295 46.0702 75.2564C46.0702 91.6833 59.3868 105 75.8138 105Z" fill="url(#paint7_radial_37_138)"/>
<ellipse cx="76.0701" cy="74.9999" rx="20.7692" ry="20.7692" fill="url(#paint8_radial_37_138)"/>
<defs>
<linearGradient id="paint0_linear_37_138" x1="138.25" y1="65.8974" x2="111.496" y2="61.1755" gradientUnits="userSpaceOnUse">
<stop offset="0.395" stop-color="#7D2190"/>
<stop offset="1" stop-color="#F79AFF"/>
</linearGradient>
<radialGradient id="paint1_diamond_37_138" cx="0" cy="0" r="1" gradientUnits="userSpaceOnUse" gradientTransform="translate(147.096 56.4102) rotate(124.706) scale(128.348 79.6182)">
<stop offset="0.316907" stop-color="#2D2867"/>
<stop offset="0.443442" stop-color="#7C218F"/>
<stop offset="0.651414" stop-color="#F582FF"/>
<stop offset="0.790683" stop-color="#A444B3"/>
<stop offset="0.952333" stop-color="#2D2867"/>
</radialGradient>
<linearGradient id="paint2_linear_37_138" x1="142.993" y1="31.4102" x2="111.012" y2="47.9176" gradientUnits="userSpaceOnUse">
<stop stop-color="#23245E"/>
<stop offset="0.395" stop-color="#7D2190"/>
<stop offset="1" stop-color="#F79AFF"/>
</linearGradient>
<linearGradient id="paint3_linear_37_138" x1="132.48" y1="25.5128" x2="82.8651" y2="42.8205" gradientUnits="userSpaceOnUse">
<stop offset="0.0423334" stop-color="#1D2159"/>
<stop offset="0.582333" stop-color="#7D2190"/>
<stop offset="1" stop-color="#F79AFF"/>
</linearGradient>
<linearGradient id="paint4_linear_37_138" x1="15.6856" y1="63.3334" x2="47.6086" y2="87.9488" gradientUnits="userSpaceOnUse">
<stop stop-color="#111335"/>
<stop offset="0.473675" stop-color="#A837BD"/>
<stop offset="1" stop-color="#EA83FF"/>
</linearGradient>
<linearGradient id="paint5_linear_37_138" x1="34.4035" y1="139.359" x2="59.9343" y2="105.578" gradientUnits="userSpaceOnUse">
<stop stop-color="#141D51"/>
<stop offset="0.368813" stop-color="#7D2190"/>
<stop offset="1" stop-color="#F79AFF"/>
</linearGradient>
<linearGradient id="paint6_linear_37_138" x1="-1.23753" y1="65.8974" x2="63.3779" y2="11.923" gradientUnits="userSpaceOnUse">
<stop stop-color="#141D51"/>
<stop offset="0.315" stop-color="#7D2190"/>
<stop offset="1" stop-color="#F79AFF"/>
</linearGradient>
<radialGradient id="paint7_radial_37_138" cx="0" cy="0" r="1" gradientUnits="userSpaceOnUse" gradientTransform="translate(76.1108 75) rotate(90) scale(75 75.4253)">
<stop offset="0.128291" stop-color="#FAC7FF"/>
<stop offset="0.201704" stop-color="#D670FF"/>
<stop offset="0.847743" stop-color="#141D51"/>
</radialGradient>
<radialGradient id="paint8_radial_37_138" cx="0" cy="0" r="1" gradientUnits="userSpaceOnUse" gradientTransform="translate(77.6086 74.9999) rotate(-13.7531) scale(37.749 36.5173)">
<stop offset="0.242333" stop-color="#F485FE"/>
<stop offset="0.567333" stop-color="#5A207B"/>
<stop offset="0.897333" stop-color="#141D51"/>
</radialGradient>
</defs>
</svg>
