<svg width="227" height="216" viewBox="0 0 227 216" fill="none" xmlns="http://www.w3.org/2000/svg">
<path d="M183.5 215.5L75 214.5L88.0599 191L183.5 215.5Z" fill="#FFE677"/>
<path d="M107 111L88 191L183.5 215.5L122.348 132.04L107 111Z" fill="#FFD000"/>
<path d="M227 0V173L183.5 215.5L122.348 132.04L173.5 51L227 0Z" fill="#D8B000"/>
<path d="M173.5 51L107 111L122.348 132.04L173.5 51Z" fill="#A27528"/>
<path d="M88 191L0 173L74 214.5H75.0057L88 191Z" fill="#FFF5C9"/>
<path d="M107 111L102 113.897L0 173L88 191L107 111Z" fill="#FFDE4D"/>
<path d="M0 19V173L102 113.897L0 19Z" fill="#D8B000"/>
</svg>
