<svg width="27" height="20" viewBox="0 0 27 20" fill="none" xmlns="http://www.w3.org/2000/svg">
<path d="M11.3957 19.3172C11.3994 19.1785 11.4023 19.039 11.404 18.8988L11.4059 18.6881C11.4047 18.6181 11.4015 18.5483 11.3992 18.4781L11.3808 18.0552C11.3688 17.9151 11.3543 17.7749 11.3407 17.6334C11.2773 17.0713 11.171 16.5076 11.0051 15.9691C10.963 15.8354 10.9143 15.706 10.8684 15.5734C10.8566 15.5407 10.8455 15.5069 10.8328 15.4747L10.7931 15.3799L10.7129 15.1898C10.6619 15.0594 10.5986 14.9434 10.5379 14.8228C10.5073 14.763 10.4772 14.7021 10.4455 14.6433L10.346 14.4736L10.2455 14.3035C10.212 14.2469 10.1747 14.1969 10.139 14.1436C10.0664 14.0397 9.99578 13.9299 9.91845 13.8353L9.80418 13.6884C9.7662 13.6391 9.72788 13.5898 9.68802 13.5456C9.60916 13.4547 9.52961 13.3631 9.44886 13.2759C9.12502 12.9289 8.78425 12.6364 8.44211 12.3681C8.09928 12.1014 7.75286 11.8603 7.40901 11.636C6.72045 11.1848 6.04061 10.7767 5.38421 10.3331C5.05661 10.1104 4.73243 9.88369 4.41834 9.63725C4.25856 9.51984 4.10648 9.38624 3.94995 9.26192C3.87262 9.19783 3.79752 9.12934 3.72106 9.06322C3.6451 8.99625 3.56761 8.93232 3.49404 8.86063L3.27011 8.65129C3.19518 8.58213 3.12658 8.5074 3.05422 8.43571C2.90813 8.29469 2.7752 8.13714 2.63663 7.98516C2.37045 7.66871 2.12034 7.33033 1.90034 6.96074C1.45846 6.22528 1.15413 5.3412 1.08964 4.34749L1.07886 4.16076C1.07698 4.09818 1.07715 4.03559 1.07612 3.97234L1.0751 3.87737L1.078 3.78257C1.08074 3.71931 1.08006 3.65504 1.08399 3.59128C1.09562 3.33522 1.1259 3.07899 1.16405 2.82107C1.20443 2.56416 1.25643 2.30692 1.3223 2.0544C1.38764 1.8012 1.46343 1.55088 1.55547 1.30764C1.4092 1.48627 1.28175 1.69831 1.16234 1.92114C1.04482 2.14617 0.938413 2.38738 0.847573 2.64412C0.755708 2.90018 0.678555 3.17109 0.617653 3.45363C0.601573 3.52398 0.58977 3.596 0.576426 3.66803L0.557095 3.77633L0.541869 3.88614C0.532119 3.95969 0.521342 4.03323 0.512788 4.10762L0.492775 4.33231C0.445388 4.93485 0.488496 5.56134 0.602943 6.15528L0.623645 6.26745L0.649305 6.37642C0.666241 6.44929 0.683691 6.52216 0.701996 6.5947C0.71859 6.66858 0.741513 6.73707 0.762384 6.80758L0.826707 7.01826C0.846893 7.09013 0.874094 7.15439 0.897872 7.22271L0.972116 7.42513C0.995895 7.49412 1.02481 7.55637 1.05235 7.6208L1.13652 7.81277C1.36712 8.31713 1.63946 8.76667 1.92892 9.17995C2.07809 9.37579 2.22453 9.58175 2.38243 9.7582C2.46043 9.84828 2.53759 9.94426 2.61645 10.0293L2.85441 10.282C2.93328 10.3678 3.01453 10.4469 3.09631 10.5255C3.17808 10.604 3.259 10.6851 3.34162 10.761C3.50774 10.9101 3.67384 11.0616 3.84372 11.1986C3.9284 11.2681 4.01291 11.3394 4.09861 11.4049L4.3559 11.6016C4.44144 11.6687 4.52886 11.7261 4.61525 11.7888C4.70198 11.8499 4.78854 11.9128 4.87562 11.9701C5.57222 12.4423 6.27943 12.833 6.96696 13.2167C7.3115 13.4089 7.6492 13.6005 7.97851 13.8049C8.30731 14.0094 8.62824 14.2246 8.93103 14.4705C9.00648 14.5323 9.07901 14.5989 9.15462 14.6612C9.19277 14.6917 9.22835 14.7263 9.26394 14.7607L9.37154 14.8636C9.44545 14.9295 9.51062 15.0078 9.57991 15.0815C9.61361 15.1195 9.64953 15.1549 9.68238 15.194L9.7804 15.3135L9.87928 15.4332C9.91076 15.4752 9.9407 15.5193 9.97166 15.5623C10.0331 15.649 10.0969 15.7338 10.153 15.8285L10.2404 15.9675L10.2845 16.0373C10.2987 16.0611 10.3114 16.0867 10.3249 16.1113C10.3778 16.2112 10.4327 16.31 10.4856 16.4121L10.6346 16.7304C10.664 16.7954 10.6905 16.8632 10.717 16.9311C10.6932 16.8831 10.671 16.8336 10.6462 16.7866C10.4259 16.3762 10.1614 16.0079 9.86902 15.7004C9.57666 15.3931 9.25966 15.1446 8.93685 14.9398C8.289 14.5333 7.62337 14.2946 6.97621 14.094C6.32768 13.8952 5.69197 13.7363 5.07321 13.5463C4.45444 13.3572 3.85193 13.1393 3.27114 12.8487C3.1981 12.8139 3.12641 12.7744 3.05405 12.7375C2.98306 12.6973 2.9095 12.6596 2.84038 12.6187C2.69908 12.5403 2.56256 12.4517 2.42673 12.3618C2.15781 12.1771 1.89881 11.9708 1.66341 11.7278C1.42785 11.485 1.21298 11.2102 1.03301 10.8921C0.942689 10.7334 0.862457 10.5633 0.79112 10.3832C0.718242 10.2039 0.659055 10.0116 0.609957 9.81066C0.411856 9.0057 0.405696 8.0437 0.573518 7.0989C0.465572 7.288 0.379012 7.50323 0.300831 7.7264C0.225046 7.95109 0.160381 8.18758 0.112139 8.43437C0.0618446 8.68065 0.0300253 8.93738 0.0115483 9.20003C-0.00521588 9.46284 -0.00333284 9.73121 0.014629 10.0009C0.0363546 10.2693 0.0739897 10.5389 0.13147 10.8008C0.189464 11.0621 0.264221 11.3179 0.355917 11.5584C0.53862 12.041 0.778803 12.47 1.04756 12.8367C1.58575 13.5728 2.22761 14.0775 2.86331 14.4593C3.50448 14.8457 4.1691 15.1107 4.82755 15.3096C5.48669 15.5088 6.1412 15.6392 6.77793 15.7704C7.41431 15.9032 8.03462 16.0351 8.61934 16.2662C8.91102 16.3831 9.19312 16.5268 9.46221 16.71C9.72994 16.8956 9.98586 17.1201 10.2216 17.3981C10.4575 17.6752 10.6753 18.0016 10.8722 18.3683C11.0706 18.7339 11.2446 19.1396 11.4143 19.5626C11.4052 19.458 11.3934 19.3534 11.3808 19.249C11.3857 19.272 11.3905 19.2944 11.3957 19.3172ZM11.5638 17.3677C11.6815 17.1909 11.7987 17.0081 11.9147 16.8124V15.1622C11.7168 15.5336 11.5217 15.8696 11.3293 16.1778C11.429 16.5496 11.5072 16.9478 11.5638 17.3677ZM11.7751 1.19973e-06C11.7344 0.479569 11.6456 0.829926 11.5089 1.05073C11.372 1.27171 11.2106 1.3822 11.0244 1.3822C10.8788 1.3822 10.5386 1.21301 10.0033 0.874458C9.07798 0.291487 8.19936 1.19973e-06 7.36727 1.19973e-06C6.2382 1.19973e-06 5.17191 0.451399 4.16823 1.35403C3.16456 2.25682 2.3672 3.526 1.77666 5.16223C1.71439 5.3348 1.65708 5.50905 1.60148 5.68363C1.72961 6.08325 1.90239 6.46717 2.12136 6.83187C2.31912 7.164 2.55212 7.48821 2.83439 7.82373L2.94011 7.94113C3.03985 8.05297 3.13394 8.15839 3.23401 8.25505C3.26344 8.28423 3.29013 8.31156 3.31681 8.33889C3.35907 8.38207 3.40115 8.42542 3.44563 8.46641L3.67093 8.6771C3.72396 8.72855 3.77511 8.77274 3.82626 8.8171L3.97492 8.94699C3.99802 8.9674 4.02162 8.98714 4.04489 9.00738C4.0892 7.55147 4.26797 6.2128 4.58291 4.99287C4.86791 3.88344 5.31903 2.98553 5.93591 2.29899C6.55262 1.61278 7.23058 1.26934 7.96961 1.26934C8.85405 1.26934 9.64542 1.73019 10.3437 2.65154C11.042 3.57323 11.5192 4.89908 11.7753 6.62894H12.1157V0L11.7751 1.19973e-06ZM10.1443 17.7101C10.081 17.7712 10.0177 17.8309 9.95506 17.8842C9.33527 18.411 8.65304 18.6741 7.90819 18.6741C7.00049 18.6741 6.26146 18.3145 5.69128 17.5952C5.28584 17.0838 4.95824 16.3954 4.70574 15.537C3.95816 15.3076 3.31065 15.0257 2.72918 14.6752C2.12188 14.3105 1.61516 13.896 1.19091 13.4188C1.31733 14.0429 1.48259 14.6526 1.68907 15.2468C2.22144 16.7795 2.97792 17.9549 3.9585 18.773C4.93891 19.5909 6.06062 20 7.3233 20C8.28335 20 9.1228 19.7483 9.84147 19.2455C10.1195 19.0508 10.3933 18.8089 10.6631 18.522C10.6571 18.5109 10.6517 18.4991 10.6457 18.4879C10.4898 18.1973 10.3213 17.9378 10.1443 17.7101ZM24.927 19.3172C24.9307 19.1785 24.9336 19.039 24.9353 18.8988L24.9372 18.6881C24.936 18.6181 24.9328 18.5483 24.9305 18.4781L24.9121 18.0552C24.9001 17.9151 24.8856 17.7749 24.872 17.6334C24.8086 17.0713 24.7023 16.5076 24.5364 15.9691C24.4943 15.8354 24.4456 15.706 24.3997 15.5734C24.3879 15.5407 24.3768 15.5069 24.3641 15.4747L24.3244 15.3799L24.2442 15.1898C24.1932 15.0594 24.1299 14.9434 24.0692 14.8228C24.0386 14.763 24.0085 14.7021 23.9768 14.6433L23.8773 14.4736L23.7768 14.3035C23.7433 14.2469 23.706 14.1969 23.6703 14.1436C23.5977 14.0397 23.5271 13.9299 23.4498 13.8353L23.3355 13.6884C23.2975 13.6391 23.2592 13.5898 23.2193 13.5456C23.1405 13.4547 23.0609 13.3631 22.9802 13.2759C22.6563 12.9289 22.3155 12.6364 21.9734 12.3681C21.6306 12.1014 21.2842 11.8603 20.9403 11.636C20.2517 11.1848 19.5719 10.7767 18.9155 10.3331C18.5879 10.1104 18.2637 9.88369 17.9496 9.63725C17.7899 9.51984 17.6378 9.38624 17.4812 9.26192C17.4039 9.19783 17.3288 9.12934 17.2524 9.06322C17.1764 8.99625 17.0989 8.93232 17.0253 8.86063L16.8014 8.65129C16.7265 8.58213 16.6579 8.5074 16.5855 8.43571C16.4394 8.29469 16.3065 8.13714 16.1679 7.98516C15.9017 7.66871 15.6516 7.33033 15.4316 6.96074C14.9898 6.22528 14.6854 5.3412 14.6209 4.34749L14.6102 4.16076C14.6083 4.09818 14.6084 4.03559 14.6074 3.97234L14.6064 3.87737L14.6093 3.78257C14.612 3.71931 14.6114 3.65504 14.6153 3.59128C14.6269 3.33522 14.6572 3.07899 14.6954 2.82107C14.7357 2.56416 14.7877 2.30692 14.8536 2.0544C14.9189 1.8012 14.9947 1.55088 15.0868 1.30764C14.9405 1.48627 14.8131 1.69831 14.6936 1.92114C14.5761 2.14617 14.4697 2.38738 14.3789 2.64412C14.287 2.90018 14.2099 3.17109 14.1489 3.45363C14.1329 3.52398 14.1211 3.596 14.1077 3.66803L14.0884 3.77633L14.0732 3.88614C14.0634 3.95969 14.0526 4.03323 14.0441 4.10762L14.0241 4.33231C13.9767 4.93485 14.0198 5.56134 14.1342 6.15528L14.1549 6.26745L14.1806 6.37642C14.1975 6.44929 14.215 6.52216 14.2333 6.5947C14.2499 6.66858 14.2728 6.73707 14.2937 6.80758L14.358 7.01826C14.3782 7.09013 14.4054 7.15439 14.4292 7.22271L14.5034 7.42513C14.5272 7.49412 14.5561 7.55637 14.5836 7.6208L14.6678 7.81277C14.8984 8.31713 15.1708 8.76667 15.4602 9.17995C15.6094 9.37579 15.7558 9.58175 15.9137 9.7582C15.9917 9.84828 16.0689 9.94426 16.1477 10.0293L16.3857 10.282C16.4646 10.3678 16.5458 10.4469 16.6276 10.5255C16.7094 10.604 16.7903 10.6851 16.8729 10.761C17.039 10.9101 17.2051 11.0616 17.375 11.1986C17.4597 11.2681 17.5442 11.3394 17.6299 11.4049L17.8872 11.6016C17.9727 11.6687 18.0602 11.7261 18.1465 11.7888C18.2333 11.8499 18.3198 11.9128 18.4069 11.9701C19.1035 12.4423 19.8107 12.833 20.4983 13.2167C20.8428 13.4089 21.1805 13.6005 21.5098 13.8049C21.8386 14.0094 22.1595 14.2246 22.4623 14.4705C22.5378 14.5323 22.6103 14.5989 22.6859 14.6612C22.7241 14.6917 22.7597 14.7263 22.7952 14.7607L22.9028 14.8636C22.9767 14.9295 23.0419 15.0078 23.1112 15.0815C23.1449 15.1195 23.1808 15.1549 23.2137 15.194L23.3117 15.3135L23.4106 15.4332C23.4421 15.4752 23.472 15.5193 23.503 15.5623C23.5644 15.649 23.6282 15.7338 23.6843 15.8285L23.7717 15.9675L23.8158 16.0373C23.83 16.0611 23.8427 16.0867 23.8562 16.1113C23.9091 16.2112 23.964 16.31 24.0169 16.4121L24.1659 16.7304C24.1953 16.7954 24.2218 16.8632 24.2483 16.9311C24.2245 16.8831 24.2023 16.8336 24.1775 16.7866C23.9572 16.3762 23.6927 16.0079 23.4003 15.7004C23.108 15.3931 22.791 15.1446 22.4682 14.9398C21.8203 14.5333 21.1547 14.2946 20.5075 14.094C19.859 13.8952 19.2233 13.7363 18.6045 13.5463C17.9857 13.3572 17.3832 13.1393 16.8024 12.8487C16.7294 12.8139 16.6577 12.7744 16.5853 12.7375C16.5144 12.6973 16.4408 12.6596 16.3717 12.6187C16.2304 12.5403 16.0939 12.4517 15.958 12.3618C15.6891 12.1771 15.4301 11.9708 15.1947 11.7278C14.9591 11.485 14.7443 11.2102 14.5643 10.8921C14.474 10.7334 14.3938 10.5633 14.3224 10.3832C14.2495 10.2039 14.1903 10.0116 14.1412 9.81066C13.9431 9.0057 13.937 8.0437 14.1048 7.0989C13.9969 7.288 13.9103 7.50323 13.8321 7.7264C13.7563 7.95109 13.6917 8.18758 13.6434 8.43437C13.5931 8.68065 13.5613 8.93738 13.5428 9.20003C13.5261 9.46284 13.528 9.73121 13.5459 10.0009C13.5677 10.2693 13.6053 10.5389 13.6628 10.8008C13.7208 11.0621 13.7955 11.3179 13.8872 11.5584C14.0699 12.041 14.3101 12.47 14.5789 12.8367C15.117 13.5728 15.7589 14.0775 16.3946 14.4593C17.0358 14.8457 17.7004 15.1107 18.3588 15.3096C19.018 15.5088 19.6725 15.6392 20.3092 15.7704C20.9456 15.9032 21.5659 16.0351 22.1506 16.2662C22.4423 16.3831 22.7244 16.5268 22.9935 16.71C23.2612 16.8956 23.5172 17.1201 23.7529 17.3981C23.9888 17.6752 24.2066 18.0016 24.4035 18.3683C24.6019 18.7339 24.7759 19.1396 24.9456 19.5626C24.9365 19.458 24.9247 19.3534 24.9121 19.249C24.917 19.272 24.9218 19.2944 24.927 19.3172ZM22.8457 16.9171C22.8339 16.9092 22.8214 16.902 22.8096 16.894C22.807 16.8996 22.8045 16.9057 22.8019 16.9111C22.2899 17.9829 21.5479 18.519 20.5763 18.519C20.2795 18.519 20.0524 18.4485 19.8954 18.3074C19.7849 18.2135 19.7062 18.0772 19.6598 17.8984C19.6131 17.7197 19.59 17.2354 19.59 16.4457V15.8787C19.1608 15.7866 18.7241 15.6847 18.2836 15.5515C17.718 15.3806 17.2103 15.1797 16.7444 14.9427V16.2903C16.7444 17.2776 16.7183 17.87 16.6659 18.0674C16.5787 18.3685 16.4434 18.6058 16.26 18.7797C16.0767 18.9538 15.8133 19.0407 15.4701 19.0407H15.0773V19.5626H20.3756C21.1379 19.5626 21.6964 19.5063 22.0514 19.3934C22.8544 19.149 23.5337 18.8034 24.0896 18.3567C24.0926 18.3542 24.0955 18.3515 24.0986 18.3489C23.9293 18.0515 23.7479 17.7857 23.5565 17.5608C23.3464 17.3137 23.1141 17.1032 22.8457 16.9171ZM26.1842 4.82385C25.64 3.28174 24.8412 2.12997 23.7881 1.36836C22.927 0.747777 21.7893 0.437397 20.3753 0.437397H15.077V0.959305H15.4698C15.8013 0.959305 16.0646 1.0509 16.2596 1.23426C16.4545 1.41762 16.584 1.63151 16.6481 1.87593C16.7121 2.12053 16.7443 2.73167 16.7443 3.70953V8.23379C16.7513 8.24071 16.758 8.2483 16.7651 8.25522C16.7946 8.2844 16.8213 8.31173 16.8479 8.33905C16.8902 8.38224 16.9323 8.42559 16.9768 8.46658L17.2021 8.67726C17.2551 8.72871 17.3062 8.77291 17.3574 8.81727L17.5061 8.94716C17.5526 8.98815 17.5989 9.02914 17.6463 9.06844C17.7011 9.11179 17.7592 9.1597 17.8174 9.20761C17.9117 9.2852 18.0059 9.36313 18.1031 9.43465C18.4348 9.69476 18.7732 9.92923 19.0613 10.1249C19.2363 10.2433 19.4121 10.3579 19.5899 10.4724V1.52338C20.5616 1.5141 21.257 1.65512 21.6759 1.94644C22.2694 2.36039 22.7552 3.14072 23.1336 4.28777C23.6107 5.75464 23.8494 7.71509 23.8494 10.1693C23.8494 11.4899 23.7835 12.6597 23.6523 13.6799L23.6535 13.6814C23.7132 13.7543 23.7702 13.8378 23.8253 13.9184L23.9163 14.0509C23.9443 14.0913 23.9722 14.132 23.9982 14.176L24.1987 14.5169C24.2254 14.5663 24.2469 14.6085 24.2682 14.6505L24.3347 14.7811C24.3855 14.8803 24.438 14.983 24.4834 15.0989L24.6011 15.3782C24.6125 15.4072 24.6214 15.4322 24.6301 15.4572L24.6876 15.6205C24.72 15.7112 24.7521 15.8018 24.7812 15.8942C24.9145 16.3261 25.0154 16.8002 25.0864 17.3043C25.2522 17.0804 25.4104 16.8397 25.5599 16.5798C25.9845 15.8418 26.3308 14.9062 26.5985 13.773C26.866 12.64 27 11.4013 27 10.0566C27.0003 8.11015 26.7283 6.36596 26.1842 4.82385Z" fill="black"/>
</svg>
