<svg width="113" height="108" viewBox="0 0 113 108" fill="none" xmlns="http://www.w3.org/2000/svg">
<g filter="url(#filter0_d_91_63)">
<path d="M76.4212 60.9407L49.4455 31.5902C45.1693 26.0145 45.3141 20.9172 48.7164 17.7638C52.1188 14.6105 58.0445 13.1326 63.2979 17.7638C63.2979 17.7638 65.6244 20.5288 67.6723 20.6746C70.1409 20.8505 71.3566 19.1088 73.0188 17.2787C74.4738 15.6768 75.5902 14.7377 75.6921 12.4274C75.801 9.95954 73.0188 7.57602 73.0188 7.57602C73.0188 7.57602 69.0221 4.07045 65.4851 1.99698C63.0349 0.3345 60.8786 -0.186291 54.792 0.056439C46.9045 0.217161 43.3176 2.36192 37.7803 8.30372C33.1529 14.0635 31.8185 17.6877 31.7047 24.7983C32.127 32.125 33.4862 35.408 37.7803 39.8375L64.0269 69.1881C68.0893 73.684 67.8016 80.2525 63.2979 83.7421C59.3132 86.8295 55.4683 86.3623 50.4176 82.7718L40.2106 92.9596C40.2106 92.9596 48.2304 100.237 56.7362 99.994C65.2421 99.7515 67.7258 98.5141 72.7758 94.1724C78.1145 89.5825 81.5562 82.9723 81.5247 78.4055C81.6396 69.487 81.1165 65.8022 76.4212 60.9407Z" fill="black"/>
<path d="M48.7164 60.9407L21.7408 31.5902C17.4646 26.0145 17.6093 20.9172 21.0117 17.7638C24.414 14.6105 30.3398 13.1326 35.5931 17.7638C35.5931 17.7638 37.9196 20.5288 39.9676 20.6746C42.4362 20.8505 43.6518 19.1088 45.3141 17.2787C46.7691 15.6768 47.8854 14.7377 47.9874 12.4274C48.0962 9.95954 45.3141 7.57602 45.3141 7.57602C45.3141 7.57602 41.3174 4.07045 37.7803 1.99698C35.3302 0.334501 33.1739 -0.186291 27.0873 0.0564395C19.1998 0.217161 15.6128 2.36192 10.0756 8.30372C5.44816 14.0635 4.11375 17.6877 4 24.7983C4.42222 32.125 5.78143 35.408 10.0756 39.8375L36.3222 69.1881C40.3845 73.684 40.0969 80.2525 35.5931 83.7421C31.6085 86.8295 27.7635 86.3623 22.7129 82.7718L12.5058 92.9596C12.5058 92.9596 20.5256 100.237 29.0315 99.994C37.5373 99.7515 40.0211 98.5141 45.0711 94.1724C50.4097 89.5825 53.8514 82.9723 53.8199 78.4055C53.9348 69.487 53.4118 65.8022 48.7164 60.9407Z" fill="black"/>
<path d="M103.883 60.9408L76.9072 31.5902C72.631 26.0145 72.7758 20.9172 76.1781 17.7639C79.5805 14.6105 85.5062 13.1326 90.7596 17.7639C90.7596 17.7639 93.0861 20.5288 95.134 20.6747C97.6026 20.8505 98.8183 19.1088 100.481 17.2787C101.936 15.6768 103.052 14.7378 103.154 12.4274C103.263 9.95958 100.481 7.57606 100.481 7.57606C100.481 7.57606 96.4838 4.07049 92.9468 1.99701C90.4967 0.334537 88.3404 -0.186254 82.2537 0.056476C74.3663 0.217198 70.7793 2.36196 65.2421 8.30376C60.6146 14.0636 59.2802 17.6877 59.1665 24.7983C59.5887 32.125 60.9479 35.408 65.2421 39.8375L91.4887 69.1881C95.551 73.684 95.2634 80.2525 90.7596 83.7421C86.7749 86.8295 82.93 86.3623 77.8793 82.7719L67.6723 92.9597C67.6723 92.9597 75.6921 100.237 84.1979 99.9941C92.7038 99.7516 95.1875 98.5142 100.238 94.1725C105.576 89.5825 109.018 82.9723 108.986 78.4055C109.101 69.4871 108.578 65.8023 103.883 60.9408Z" fill="black"/>
</g>
<defs>
<filter id="filter0_d_91_63" x="0" y="0" width="113" height="108" filterUnits="userSpaceOnUse" color-interpolation-filters="sRGB">
<feFlood flood-opacity="0" result="BackgroundImageFix"/>
<feColorMatrix in="SourceAlpha" type="matrix" values="0 0 0 0 0 0 0 0 0 0 0 0 0 0 0 0 0 0 127 0" result="hardAlpha"/>
<feOffset dy="4"/>
<feGaussianBlur stdDeviation="2"/>
<feComposite in2="hardAlpha" operator="out"/>
<feColorMatrix type="matrix" values="0 0 0 0 0 0 0 0 0 0 0 0 0 0 0 0 0 0 0.25 0"/>
<feBlend mode="normal" in2="BackgroundImageFix" result="effect1_dropShadow_91_63"/>
<feBlend mode="normal" in="SourceGraphic" in2="effect1_dropShadow_91_63" result="shape"/>
</filter>
</defs>
</svg>
