<svg width="122" height="132" viewBox="0 0 122 132" fill="none" xmlns="http://www.w3.org/2000/svg">
<path d="M60.8404 16.3329C63.9115 16.3329 66.9295 16.5489 69.8783 16.9658C69.6579 17.2147 71.3079 7.51902 70.3159 4.21249C69.3238 0.90597 66.5683 -0.637048 63.9231 0.244535C61.2779 1.12612 56.8354 3.90719 53.1217 6.85769C46.3896 12.2063 39.6751 18.9816 39.6751 18.9816C34.6552 14.1124 30.8219 12.0719 21.8198 8.18035C12.4174 4.57172 10.0734 6.1886 10.1367 14.3526C10.7665 23.1723 12.0578 27.7162 15.8714 35.1856C30.6441 32.663 43.0928 16.501 60.8404 16.3329Z" fill="#4B0163"/>
<path d="M60.8404 131.842C61.8742 131.842 62.902 131.817 63.9231 131.769C96.092 130.245 121.681 105.003 121.681 74.0872C121.681 45.1057 99.1934 21.11 69.8783 16.9658C66.9295 16.5489 63.9115 16.3329 60.8404 16.3329C43.0928 16.501 30.6441 32.663 15.8714 35.1856C6.01207 45.4498 0 59.1021 0 74.0872C0 98.2839 15.6751 119.005 37.9116 127.6C44.988 130.335 52.7288 131.842 60.8404 131.842Z" fill="#4B0163"/>
<path d="M67.6741 105.589C95.3099 105.589 115.068 90.1966 115.068 66.5784C111.56 36.7793 79.4463 23.007 62.6039 23.2272C62.6039 23.2272 50.7693 29.2417 45.6559 32.1891C38.1716 36.5032 31.5984 40.2921 24.8949 41.625C19.8394 46.9531 16.5329 56.4555 16.5329 65.2493C16.5329 88.8676 40.0383 105.589 67.6741 105.589Z" fill="#F562BA"/>
<path d="M63.068 23.0205C64.378 18.8992 64.7386 16.5561 65.0289 12.3446C65.0289 12.3446 65.2437 9.5517 65.0735 7.7152C55.6774 12.6017 50.2339 17.021 40.34 26.6729C39.736 26.2836 39.141 25.9 38.5553 25.5223C23.59 15.8721 14.6673 10.1183 14.9897 13.2261L15.0638 14.1513C15.3234 15.4008 15.7679 17.1214 16.3124 19.3985C17.372 24.0656 22.8826 38.8446 24.8949 41.625C31.5984 40.2921 38.1716 36.5032 45.6559 32.1891C50.7693 29.2417 62.6039 23.2272 62.6039 23.2272L63.068 23.0205Z" fill="#F562BA"/>
<path fill-rule="evenodd" clip-rule="evenodd" d="M22.4846 14.5489C30.7105 18.5498 34.6912 21.1585 40.34 26.6729C39.736 26.2836 39.141 25.9 38.5553 25.5223C23.59 15.8721 14.6673 10.1183 14.9897 13.2261L15.0638 14.1513C14.7517 12.6488 14.7069 11.8276 15.0772 11.5393C15.6177 11.1184 17.0428 11.8336 19.8118 13.2231C20.5925 13.6149 21.48 14.0603 22.4846 14.5489Z" fill="white"/>
<path d="M58.4158 9.91967C55.1092 12.3446 48.8207 16.9598 40.34 26.6729C50.2339 17.021 55.6774 12.6017 65.0735 7.7152C64.9999 6.9209 64.8542 6.3055 64.588 6.17235C63.7062 5.73135 61.7223 7.49477 58.4158 9.91967Z" fill="white"/>
<path d="M115.068 66.5784C115.068 42.9601 93.9873 22.932 66.3515 22.932C65.2479 22.932 64.1531 22.9618 63.068 23.0205C62.8868 23.1013 62.6039 23.2272 62.6039 23.2272C79.4463 23.007 111.56 36.7793 115.068 66.5784Z" fill="white"/>
<path d="M80.4591 64.5879C80.4591 69.0924 76.9818 72.7441 72.9643 72.7441C68.9468 72.7441 65.249 69.0924 65.249 64.5879C65.249 60.0834 68.9468 55.9909 72.9643 55.9909C76.9818 55.9909 80.4591 60.0834 80.4591 64.5879Z" fill="#4B0062"/>
<path d="M110.879 69.8783C110.879 72.9219 108.929 74.9484 106.25 74.9484C103.572 74.9484 101.401 72.7015 101.401 69.6579C101.401 66.6143 103.572 64.147 106.25 64.147C108.929 64.147 110.879 66.8347 110.879 69.8783Z" fill="#4B0062"/>
<path d="M52.1291 24.5522C53.0695 26.1811 46.3881 28.0644 40.3766 31.5351C34.3652 35.0058 31.3001 38.7497 30.3596 37.1208C29.4191 35.4918 33.53 31.3577 39.5415 27.887C45.5529 24.4163 51.1886 22.9232 52.1291 24.5522Z" fill="#FFADDE"/>
</svg>
