<svg width="158" height="150" viewBox="0 0 158 150" fill="none" xmlns="http://www.w3.org/2000/svg">
<path d="M74.478 77.2622L61.2529 132.947L127.726 150L85.1612 91.9075L74.478 77.2622Z" fill="#FFD000"/>
<path d="M158.005 0V120.418L127.726 150L85.1612 91.9075L120.766 35.4988L158.005 0Z" fill="#D8B000"/>
<path d="M120.766 35.4988L74.478 77.2622L85.1612 91.9075L120.766 35.4988Z" fill="#A27528"/>
<path d="M61.2529 132.947L3.42288e-06 120.418L51.5081 149.304H52.2081L61.2529 132.947Z" fill="#FFF5C9"/>
<path d="M74.478 77.2622L70.9977 79.2788L3.42288e-06 120.418L61.2529 132.947L74.478 77.2622Z" fill="#FFDE4D"/>
<path d="M0 13.2251L3.42288e-06 120.418L70.9977 79.2788L0 13.2251Z" fill="#D8B000"/>
<path d="M127.726 150L52.2042 149.304L61.2946 132.947L127.726 150Z" fill="#FFE677"/>
</svg>
